# xmcd
#
# Track frame offsets:
#	150
#	15881
#	34183
#	54194
#	67306
#	86402
#	101775
#	119763
#	136841
#	149502
#
# Disc length: 2204 seconds
#
# Revision: 0
# Processed by: cddbd v1.4PL0 Copyright (c) Steve Scherf et al.
# Submitted via: dBpowerAMP V4.0
#
DISCID=8a089a0a
DTITLE=Glenn Kearney - Mama Ain't Crying No More
DYEAR=1900
DGENRE=Christian Country
TTITLE0=We Need To Talk
TTITLE1=Mama Ain't Crying No More
TTITLE2=When He Was On The Cross
TTITLE3=Daniel In The Lions Den
TTITLE4=What A Healing Jesus
TTITLE5=You Still Have A Friend
TTITLE6=By His Grace
TTITLE7=At The Local Wal-Mart
TTITLE8=Eleven Fifty-Nine 
TTITLE9=Is That Somebody You?
EXTD=This is agreat Christian ablum, from a new artist, Glenn Kearney. My name is Charles beaver  
EXTT0=
EXTT1=
EXTT2=
EXTT3=
EXTT4=
EXTT5=
EXTT6=
EXTT7=
EXTT8=
EXTT9=
PLAYORDER=
